# xmcd CD database file
#
# Track frame offsets:
#	150
#	18925
#	37520
#	53160
#	74320
#	88830
#	104675
#	116382
#	130092
#	143272
#	158647
#	179770
#	195967
#	208477
#	223392
#
# Disc length: 3129 seconds
#
# Revision: 7
# Processed by: cddbd v1.5.2PL0 Copyright (c) Steve Scherf et al.
# Submitted via: CDex 1.70beta2
#
DISCID=d20c370f
DTITLE=Vonda Shepard - Heart And Soul - New Songs From Ally McBeal -
DYEAR=1999
DGENRE=Soundtrack
TTITLE0=Read Your Mind
TTITLE1=100 Tears Away
TTITLE2=Someday We'll Be Together
TTITLE3=To Sir, With Love (Duet with Al Green)
TTITLE4=Sweet Inspiration
TTITLE5=Crying
TTITLE6=Vincent (Starry Starry Night)
TTITLE7=What Becomes Of The Brokenhearted
TTITLE8=World Without Love
TTITLE9=Confetti
TTITLE10=Baby, Don't You Break My Heart Slow (Duet with Emily Saliersof the Indigo Girls)
TTITLE11=This Is Crazy Now
TTITLE12=This Old Heart Of Mine (Is Weak For You)
TTITLE13=I Know Him By Heart
TTITLE14=Hidden Persuasion
EXTD=YEAR: 1999
EXTT0=
EXTT1=
EXTT2=
EXTT3=
EXTT4=
EXTT5=
EXTT6=
EXTT7=
EXTT8=
EXTT9=
EXTT10=
EXTT11=
EXTT12=
EXTT13=
EXTT14=
PLAYORDER=
